<?xml version="1.0" encoding="utf-8"?>
<!-- Generator: Adobe Illustrator 16.0.0, SVG Export Plug-In . SVG Version: 6.00 Build 0)  -->
<!DOCTYPE svg PUBLIC "-//W3C//DTD SVG 1.1//EN" "http://www.w3.org/Graphics/SVG/1.1/DTD/svg11.dtd">
<svg version="1.1" id="Layer_1" xmlns="http://www.w3.org/2000/svg" xmlns:xlink="http://www.w3.org/1999/xlink" x="0px" y="0px"
	 width="100px" height="100px" viewBox="0 0 100 100" enable-background="new 0 0 100 100" xml:space="preserve">
<ellipse fill="#010101" cx="67.254" cy="46.548" rx="2.258" ry="2.39"/>
<ellipse fill="#010101" cx="76.59" cy="56.951" rx="2.258" ry="2.391"/>
<ellipse fill="#010101" cx="75.241" cy="48.938" rx="1.349" ry="1.427"/>
<ellipse fill="#010101" cx="62.232" cy="43.783" rx="1.348" ry="1.427"/>
<ellipse fill="#010101" cx="82.125" cy="64.263" rx="1.348" ry="1.427"/>
<ellipse fill="#010101" cx="70.859" cy="56.951" rx="1.348" ry="1.428"/>
<path fill="#010101" d="M50.902,22.899c-20.602,0-42.5,5.306-42.5,15.139v26.205c0,9.834,21.898,15.139,42.5,15.139
	c4.098,0,8.146-0.191,12.046-0.582l4.175-0.414v-9.621l20.904,3.166l0.709-0.498c3.096-2.146,4.666-4.568,4.666-7.188V38.038
	C93.402,28.205,71.505,22.899,50.902,22.899z M62.873,63.982v4.137v5.762v0.994c-2.42,0.146-9.492,0.426-11.971,0.426
	c-23.701,0-38.249-6.443-38.249-11.059V57.35V44.926c3.734,2.74,9.639,4.825,16.525,6.213c6.687,1.346,14.287,2.045,21.724,2.045
	c4.066,0,8.092-0.197,11.971-0.58V63.982z M85.366,48.217c-0.298-0.153-0.63-0.242-0.983-0.242c-1.247,0-2.258,1.07-2.258,2.39
	c0,1.321,1.011,2.391,2.258,2.391c0.354,0,0.688-0.088,0.983-0.242v2.607v4.701v7.566L72.26,65.406
	c0.241-0.318,0.387-0.725,0.387-1.166c0-1.031-0.791-1.871-1.766-1.871s-1.767,0.84-1.767,1.871c0,0.252,0.048,0.492,0.133,0.709
	l-2.124-0.318V52.184l-2.131-2.252l-8.471-8.976l14.41,2.181c-0.047,0.145-0.072,0.299-0.072,0.459c0,0.788,0.603,1.427,1.348,1.427
	c0.744,0,1.348-0.639,1.348-1.427c0-0.021-0.001-0.042-0.003-0.063l11.813,1.79L85.366,48.217L85.366,48.217z M86.926,41.424
	l-41.645-6.302l12.977,13.757c-2.415,0.144-4.877,0.22-7.356,0.22c-23.701,0-38.249-6.438-38.249-11.062
	c0.001-4.617,14.549-11.057,38.25-11.057c23.696,0,38.249,6.441,38.249,11.057C89.151,39.327,88.058,40.525,86.926,41.424z"/>
</svg>
