<?xml version="1.0" encoding="utf-8"?>
<!-- Generator: Adobe Illustrator 16.0.0, SVG Export Plug-In . SVG Version: 6.00 Build 0)  -->
<!DOCTYPE svg PUBLIC "-//W3C//DTD SVG 1.1//EN" "http://www.w3.org/Graphics/SVG/1.1/DTD/svg11.dtd">
<svg version="1.1" id="Layer_1" xmlns="http://www.w3.org/2000/svg" xmlns:xlink="http://www.w3.org/1999/xlink" x="0px" y="0px"
	 width="100px" height="100px" viewBox="0 0 100 100" enable-background="new 0 0 100 100" xml:space="preserve">
<path fill="#010101" d="M69.373,53.641c0,0-3.953-0.777-7.085,2.455c-0.028-0.023-0.052-0.047-0.082-0.068l-3.345-2.342
	c-0.699-0.49-1.629-0.373-2.076,0.266c-0.446,0.639-0.24,1.553,0.459,2.043l3.346,2.342c0.021,0.014,0.044,0.023,0.064,0.037
	c-2.11,4.105,0.143,7.516,0.143,7.516S61.319,57.256,69.373,53.641z"/>
<path fill="#010101" d="M64.023,46.123c0,0-4.869-0.435-9.203,4.743c-0.025-0.02-0.045-0.041-0.07-0.059l-3.345-2.342
	c-0.701-0.49-1.629-0.372-2.076,0.267c-0.447,0.638-0.242,1.55,0.459,2.042l3.345,2.342c0.02,0.014,0.041,0.021,0.061,0.035
	c-3.577,5.945-1.289,10.281-1.289,10.281S53.871,52.096,64.023,46.123z"/>
<path fill="#010101" d="M57.89,39.083c0,0-5.669-0.271-10.931,6.29c-0.05-0.046-0.098-0.091-0.155-0.132L43.458,42.9
	c-0.7-0.49-1.629-0.372-2.076,0.267c-0.447,0.638-0.241,1.552,0.459,2.042l3.345,2.342c0.053,0.037,0.11,0.064,0.166,0.096
	c-4.596,7.319-2.161,12.428-2.161,12.428S46.012,46.63,57.89,39.083z"/>
<path fill="#010101" d="M52.02,30.779c0,0-7.004-0.102-13.706,8.52l-3.257-2.281c-0.701-0.49-1.629-0.372-2.076,0.267
	c-0.447,0.638-0.242,1.552,0.459,2.042l3.244,2.271c-6.108,9.426-3.306,15.801-3.306,15.801S37.329,40.611,52.02,30.779z"/>
<path fill="#010101" d="M43.253,24.878c0,0-6.999-0.158-13.626,8.348c-0.028-0.021-0.052-0.048-0.082-0.068L26.2,30.816
	c-0.7-0.49-1.63-0.373-2.077,0.266c-0.447,0.638-0.241,1.552,0.46,2.043l3.345,2.342c0.025,0.018,0.054,0.029,0.08,0.046
	c-6.023,9.312-3.17,15.666-3.17,15.666S28.648,34.529,43.253,24.878z"/>
<path fill="#010101" d="M93.76,59.104c-9.357-1.594-19.643-0.154-23.828,2.338c-0.009-0.008-0.016-0.016-0.023-0.021l-3.345-2.342
	c-0.7-0.49-1.63-0.371-2.076,0.268c-0.446,0.637-0.242,1.551,0.46,2.041l3.344,2.342c0.01,0.006,0.02,0.01,0.029,0.016
	c-0.912,4.787,1.256,14.945,5.951,23.191c0,0,5.436-5.076,5.428-16.939C90.849,65.947,93.76,59.104,93.76,59.104z"/>
<path fill="#010101" d="M23.214,30.444c4.337-6.194,10.955-11.731,10.955-11.731s-21.117-7.127-26.634,0.754
	c-5.52,7.883,8.399,25.287,8.399,25.287s2.94-8.111,7.278-14.307L23.214,30.444z M16.224,24.222
	c-1.131-0.792-1.407-2.35-0.615-3.481c0.792-1.13,2.35-1.405,3.481-0.612c1.131,0.791,1.406,2.35,0.614,3.48
	C18.913,24.742,17.355,25.014,16.224,24.222z"/>
</svg>
