<?xml version="1.0" encoding="utf-8"?>
<!-- Generator: Adobe Illustrator 16.0.0, SVG Export Plug-In . SVG Version: 6.00 Build 0)  -->
<!DOCTYPE svg PUBLIC "-//W3C//DTD SVG 1.1//EN" "http://www.w3.org/Graphics/SVG/1.1/DTD/svg11.dtd">
<svg version="1.1" id="Layer_1" xmlns="http://www.w3.org/2000/svg" xmlns:xlink="http://www.w3.org/1999/xlink" x="0px" y="0px"
	 width="100px" height="100px" viewBox="0 0 100 100" enable-background="new 0 0 100 100" xml:space="preserve">
<path fill="#010101" d="M85.643,18.876l-49.77,51.686c13.854,14.16,36.225,14.068,49.968-0.205
	C99.584,56.086,99.497,33.037,85.643,18.876z M79.995,43.931c-1.998,2.075-3.492-3.586-3.492-3.586S81.993,41.856,79.995,43.931z
	 M78.448,54.25c-1.998,2.076-3.492-3.585-3.492-3.585S80.446,52.176,78.448,54.25z M72.052,44.967
	c-1.997,2.075-3.492-3.586-3.492-3.586S74.05,42.894,72.052,44.967z M69.765,54.557c-1.998,2.072-3.493-3.588-3.493-3.588
	S71.763,52.48,69.765,54.557z M69.539,63.504c-1.998,2.076-3.493-3.586-3.493-3.586S71.537,61.43,69.539,63.504z M60.478,56.986
	c-1.998,2.076-3.49-3.582-3.49-3.582S62.477,54.914,60.478,56.986z M59.533,65.18c-1.997,2.074-3.49-3.588-3.49-3.588
	S61.531,63.105,59.533,65.18z M82.755,67.293c-10.568,10.973-29.193,9.986-41.06,1.336l0.374-0.387
	c11.765,7.449,28.601,7.338,38.607-3.051c10.005-10.391,9.978-27.739,2.654-39.801l0.481-0.499
	C92.301,37.048,93.325,56.314,82.755,67.293z"/>
<g>
	<path fill="#010101" d="M28.828,33.329c0,0,2.613-11.453,11.767-13.473C40.594,19.856,38.637,32.656,28.828,33.329z"/>
	<g>
		<path fill="#010101" d="M32.915,70.563L51.65,51.107c-1.215-10.698-6.609-19.129-22.593-15.084
			C10.423,31.307,6.175,43.546,6.175,56.568c0,13.021,10.244,23.578,22.883,23.578c4.354,0,8.426-1.256,11.891-3.43
			C38.07,75.104,35.358,73.059,32.915,70.563z M12.732,47.879c-0.891,9.566,2.265,20.984,16.325,26.876
			c0,0-22.531-4.879-17.216-27.402L12.732,47.879z"/>
	</g>
</g>
</svg>
