<?xml version="1.0" encoding="utf-8"?>
<!-- Generator: Adobe Illustrator 16.0.0, SVG Export Plug-In . SVG Version: 6.00 Build 0)  -->
<!DOCTYPE svg PUBLIC "-//W3C//DTD SVG 1.1//EN" "http://www.w3.org/Graphics/SVG/1.1/DTD/svg11.dtd">
<svg version="1.1" id="Layer_1" xmlns="http://www.w3.org/2000/svg" xmlns:xlink="http://www.w3.org/1999/xlink" x="0px" y="0px"
	 width="100px" height="100px" viewBox="0 0 100 100" enable-background="new 0 0 100 100" xml:space="preserve">
<path fill="#010101" d="M17.86,36.335l4.354,3.401l47.762,37.315c11.661,9.111,16.991,6.219,19.511,2.49
	c5.33-7.889-0.34-19.436-17.191-32.929c1.092,3.638,1.703,7.435,2.019,11.205c0.182,2.168-3.173,2.59-3.354,0.412
	c-0.458-5.475-3.031-12.072-5.747-17.167c0,0-1.185-1.847-3.255-3.463c-1.938-1.515-4.23-2.385-4.229-2.385
	c1.097,3.645,1.707,7.447,2.023,11.226c0.121,1.447-1.334,2.115-2.369,1.75c-0.516-0.182-0.926-0.617-0.984-1.34
	c-0.459-5.473-3.033-12.069-5.748-17.166c0,0-1.184-1.846-3.254-3.463c-1.938-1.514-4.229-2.384-4.229-2.384
	c1.098,3.645,1.709,7.448,2.023,11.225l0,0c0.12,1.449-1.336,2.115-2.369,1.751c-0.514-0.183-0.924-0.616-0.984-1.339
	c-0.408-4.874-2.494-10.637-4.861-15.439c-12.154-7.097-21.176-7.675-26.25-2.029C7.718,21.353,6.2,27.225,17.86,36.335z"/>
</svg>
