<?xml version="1.0" encoding="utf-8"?>
<!-- Generator: Adobe Illustrator 16.0.0, SVG Export Plug-In . SVG Version: 6.00 Build 0)  -->
<!DOCTYPE svg PUBLIC "-//W3C//DTD SVG 1.1//EN" "http://www.w3.org/Graphics/SVG/1.1/DTD/svg11.dtd">
<svg version="1.1" id="Layer_1" xmlns="http://www.w3.org/2000/svg" xmlns:xlink="http://www.w3.org/1999/xlink" x="0px" y="0px"
	 width="100px" height="100px" viewBox="0 0 100 100" enable-background="new 0 0 100 100" xml:space="preserve">
<path id="path6712" fill="#010101" d="M66.853,24.034c-1.383,1.356-3.252,1.887-5.324,1.887c-2.629,0-5.021-1.084-6.395-3.136
	c-1.363,2.094-3.766,3.136-6.429,3.136c-2.63,0-5-1.106-6.374-3.158c-1.364,2.117-3.767,3.158-6.458,3.158
	c-1.944,0-3.726-0.443-5.068-1.648l-1.018-7.377c1.394,1.865,3.604,3.071,6.085,3.071c2.691,0,5.095-1.336,6.458-3.452
	c1.374,2.051,3.744,3.452,6.374,3.452c2.663,0,5.065-1.336,6.429-3.43c1.374,2.051,3.766,3.43,6.395,3.43
	c2.684,0,5.057-1.4,6.408-3.516L66.853,24.034z"/>
<path id="path6714" fill="#010101" d="M68.796,86.329l11.623-75l-7.824,0.077l-10.57,67.016H35.688l-10.57-67.016l-7.824-0.077
	l11.622,75H68.796z"/>
</svg>
