<?xml version="1.0" encoding="utf-8"?>
<!-- Generator: Adobe Illustrator 16.0.0, SVG Export Plug-In . SVG Version: 6.00 Build 0)  -->
<!DOCTYPE svg PUBLIC "-//W3C//DTD SVG 1.1//EN" "http://www.w3.org/Graphics/SVG/1.1/DTD/svg11.dtd">
<svg version="1.1" id="Layer_1" xmlns="http://www.w3.org/2000/svg" xmlns:xlink="http://www.w3.org/1999/xlink" x="0px" y="0px"
	 width="100px" height="100px" viewBox="0 0 100 100" enable-background="new 0 0 100 100" xml:space="preserve">
<path fill="#010101" d="M81.633,18.369c-1.219-5.367-5.998-9.316-11.692-9.317c-6.619,0.001-12.003,5.386-12.003,12.005
	c0,1.612,0.276,3.087,0.839,4.463l-7.441,7.442c-0.58-0.058-1.167-0.089-1.762-0.089c-6.563,0-28.734,11.614-33.168,15.971
	c-4.537,4.458-7.354,10.664-7.353,17.528c0,13.571,11.001,24.573,24.574,24.573c6.864,0,13.071-2.814,17.528-7.351
	c4.357-4.435,15.973-26.605,15.973-33.168c0-0.595-0.031-1.183-0.089-1.763l7.46-7.459c1.408,0.565,2.916,0.859,4.445,0.86
	c6.619,0,12.004-5.385,12.004-12.004C90.947,24.368,86.999,19.589,81.633,18.369z M78.945,36.965c-1.273,0-2.521-0.356-3.609-1.03
	l-1.718-1.063l-8.147,8.148c-1.744-3.735-4.756-6.747-8.49-8.49l8.174-8.175l-1.114-1.729c-0.692-1.077-1.003-2.178-1.005-3.57
	c0-3.806,3.098-6.904,6.903-6.904c3.696,0,6.72,2.896,6.886,6.59l0.105,2.328l2.327,0.105c3.696,0.166,6.591,3.19,6.591,6.885
	C85.848,33.868,82.751,36.965,78.945,36.965z"/>
</svg>
