<?xml version="1.0" encoding="utf-8"?>
<!-- Generator: Adobe Illustrator 16.0.0, SVG Export Plug-In . SVG Version: 6.00 Build 0)  -->
<!DOCTYPE svg PUBLIC "-//W3C//DTD SVG 1.1//EN" "http://www.w3.org/Graphics/SVG/1.1/DTD/svg11.dtd">
<svg version="1.1" id="Layer_1" xmlns="http://www.w3.org/2000/svg" xmlns:xlink="http://www.w3.org/1999/xlink" x="0px" y="0px"
	 width="100px" height="100px" viewBox="0 0 100 100" enable-background="new 0 0 100 100" xml:space="preserve">
<path fill="#010101" d="M50.187,24.393h1.015c4.199,0,7.605,3.404,7.605,7.604V42.71h10.711c4.199,0,7.605,3.405,7.605,7.605v1.013
	c0,4.2-3.406,7.605-7.605,7.605H58.807v10.712c0,4.2-3.406,7.604-7.605,7.604h-1.015c-4.2,0-7.605-3.404-7.605-7.604V58.934h-10.71
	c-4.2,0-7.605-3.405-7.605-7.605v-1.014c0-4.2,3.405-7.605,7.605-7.605h10.71V31.998C42.582,27.797,45.987,24.393,50.187,24.393z
	 M22.411,79.105c-15.622-15.621-15.622-40.949,0-56.569c15.62-15.621,40.947-15.621,56.568,0s15.621,40.948,0,56.569
	S38.03,94.727,22.411,79.105z"/>
</svg>
