<?xml version="1.0" encoding="utf-8"?>
<!-- Generator: Adobe Illustrator 16.0.0, SVG Export Plug-In . SVG Version: 6.00 Build 0)  -->
<!DOCTYPE svg PUBLIC "-//W3C//DTD SVG 1.1//EN" "http://www.w3.org/Graphics/SVG/1.1/DTD/svg11.dtd">
<svg version="1.1" id="Layer_1" xmlns="http://www.w3.org/2000/svg" xmlns:xlink="http://www.w3.org/1999/xlink" x="0px" y="0px"
	 width="100px" height="100px" viewBox="0 0 100 100" enable-background="new 0 0 100 100" xml:space="preserve">
<g>
	<path fill="#010101" d="M33.678,76.049c0.263-0.891,0.558-1.83,0.862-2.76c0.935-2.883,1.418-4.799,0.096-6.711
		c-0.658-0.949-1.832-1.818-2.331-2.119c-0.249-0.15-0.491-0.348-0.747-0.523c-0.127-0.094-0.259-0.186-0.388-0.283
		c-0.129-0.1-0.25-0.211-0.383-0.318c-0.123-0.104-0.253-0.215-0.383-0.326c-0.14-0.107-0.25-0.24-0.382-0.365
		c-0.246-0.25-0.504-0.498-0.735-0.783c-0.117-0.141-0.232-0.279-0.359-0.42c-0.113-0.146-0.218-0.301-0.328-0.455
		c-0.108-0.15-0.224-0.307-0.323-0.465c-0.099-0.164-0.197-0.324-0.296-0.494c-0.202-0.318-0.353-0.674-0.527-1.016
		c-0.087-0.174-0.15-0.361-0.222-0.535c-0.068-0.184-0.15-0.354-0.2-0.541c-0.115-0.365-0.242-0.73-0.314-1.104
		c-0.044-0.186-0.095-0.371-0.124-0.551c-0.033-0.189-0.063-0.377-0.093-0.559c-0.107-0.742-0.165-1.473-0.151-2.175
		c-0.004-0.704,0.056-1.383,0.127-2.02c0.084-0.638,0.195-1.225,0.313-1.772c0.245-1.085,0.543-1.957,0.766-2.567
		c0.226-0.602,0.386-0.929,0.386-0.929s-0.13,0.338-0.302,0.956c-0.168,0.622-0.385,1.516-0.527,2.594
		c-0.068,0.546-0.122,1.135-0.147,1.758c-0.014,0.619-0.017,1.278,0.048,1.948c0.049,0.677,0.165,1.363,0.324,2.045
		c0.045,0.17,0.088,0.342,0.133,0.51c0.042,0.168,0.111,0.326,0.159,0.502c0.105,0.336,0.249,0.658,0.378,0.98
		c0.064,0.172,0.152,0.322,0.231,0.475c0.08,0.156,0.148,0.316,0.239,0.467c0.188,0.291,0.346,0.605,0.558,0.867
		c0.1,0.137,0.199,0.271,0.299,0.416c0.104,0.133,0.214,0.25,0.322,0.383c0.111,0.125,0.215,0.254,0.329,0.375
		c0.12,0.111,0.233,0.225,0.35,0.344c0.223,0.236,0.473,0.43,0.714,0.629c0.118,0.1,0.229,0.209,0.356,0.289
		c0.127,0.092,0.25,0.178,0.372,0.258c0.121,0.082,0.241,0.172,0.354,0.254c0.129,0.074,0.25,0.146,0.375,0.219
		c0.24,0.139,0.463,0.293,0.699,0.4c0.857,0.416,2.024,0.855,2.439-1.002c0.028-0.137,0.062-0.283,0.094-0.418
		c0.521-2.443,1.165-5,1.794-7.646c0.162-0.664,0.323-1.332,0.484-2.001c0.113-0.466,0.227-0.93,0.345-1.404
		c0.003-0.007,0.003-0.011,0.006-0.016c0.113-0.464,0.356-1.392-0.452-2.234c-0.015-0.013-0.026-0.027-0.045-0.045
		s-0.037-0.041-0.063-0.063l0,0c-0.112-0.116-0.231-0.238-0.363-0.376c-0.34-0.322-0.673-0.746-1.049-1.188
		c-0.188-0.222-0.354-0.481-0.54-0.73c-0.095-0.129-0.187-0.26-0.279-0.389c-0.084-0.14-0.171-0.284-0.26-0.428
		c-0.085-0.142-0.172-0.29-0.259-0.434c-0.097-0.146-0.161-0.31-0.243-0.465c-0.156-0.317-0.324-0.636-0.449-0.979
		c-0.064-0.17-0.136-0.342-0.203-0.516c-0.068-0.172-0.112-0.356-0.168-0.537c-0.058-0.181-0.115-0.356-0.165-0.541
		c-0.035-0.185-0.076-0.37-0.112-0.557c-0.096-0.369-0.122-0.763-0.178-1.141c-0.03-0.189-0.027-0.383-0.038-0.574
		c-0.009-0.193-0.032-0.387-0.022-0.577c0.012-0.383,0.01-0.77,0.055-1.147c0.024-0.191,0.027-0.378,0.066-0.565
		c0.023-0.187,0.058-0.371,0.085-0.557c0.139-0.734,0.322-1.443,0.552-2.109c0.224-0.668,0.498-1.293,0.771-1.869
		c0.281-0.573,0.571-1.106,0.859-1.581c0.58-0.95,1.141-1.687,1.545-2.191c0.409-0.494,0.668-0.761,0.668-0.761
		s-0.237,0.288-0.596,0.818c-0.358,0.535-0.847,1.309-1.327,2.297c-0.243,0.49-0.48,1.029-0.701,1.611
		c-0.214,0.587-0.426,1.207-0.58,1.865c-0.165,0.655-0.275,1.338-0.348,2.036c-0.006,0.174-0.024,0.349-0.035,0.524
		c-0.014,0.179,0,0.353-0.004,0.526c-0.017,0.354,0.022,0.707,0.044,1.057c0.003,0.175,0.042,0.349,0.064,0.522
		c0.026,0.172,0.04,0.346,0.08,0.516c0.081,0.335,0.132,0.679,0.251,1.006c0.049,0.161,0.097,0.322,0.147,0.485
		c0.06,0.159,0.126,0.312,0.186,0.468c0.064,0.155,0.115,0.31,0.192,0.458c0.07,0.148,0.147,0.294,0.221,0.44
		c0.134,0.29,0.307,0.559,0.471,0.825c0.087,0.129,0.155,0.267,0.249,0.387c0.091,0.122,0.182,0.242,0.27,0.36
		c0.086,0.121,0.173,0.243,0.256,0.357c0.097,0.107,0.187,0.215,0.283,0.324c0.183,0.206,0.347,0.425,0.537,0.6
		c0.262,0.262,0.498,0.509,0.733,0.726c0.831,0.705,1.017,0.007,1.181-0.636v-0.004c0.334-1.294,0.672-2.6,1.006-3.908l0.072-0.273
		l0.071-0.264l0.147-0.522c0.097-0.35,0.189-0.691,0.3-1.051c0.21-0.711,0.425-1.418,0.663-2.109c0.911-2.78,1.947-5.504,3.026-8.16
		c1.078-2.653,2.197-5.235,3.309-7.719c2.027-4.495,4.042-8.663,5.849-12.3l0,0c0.09-0.183,0.201-0.41-0.182-0.548
		c-5.06-1.423-8.396,5.326-10.562,7.528c-2.202,2.234-8.635,9.564-10.818,14.014c-2.182,4.449-5.259,10.006-6.573,12.036
		s-3.793,6.624-3.232,12.216c0.562,5.588-1.372,7.25-2.429,7.977c-1.051,0.723,0.42,3,1.609,3.881
		c1.189,0.877,1.989,2.934,4.436,3.725c2.45,0.799,4.13,0.541,4.356,2.729c0.091,0.877,0.438,1.514-0.819,5.557
		c-1.308,4.197-3.622,10.18-1.858,10.75C29.789,89.588,32.494,80.131,33.678,76.049z"/>
	<path fill="#010101" d="M52.333,64.014c3.734-4.195,4.438-9.367,4.568-11.787c0.129-2.415,0.904-8.714,1.754-13.6
		c0.85-4.884-0.051-14.592-0.518-17.694c-0.418-2.782,0.6-9.187-2.941-11.684c-0.182-0.113-0.443-0.176-0.641,0.279
		c-1.639,3.676-3.449,7.872-5.262,12.382c-1.017,2.512-2.028,5.119-2.999,7.788c-0.64,1.778-1.264,3.577-1.84,5.396
		c-0.23,0.821,0.249,0.821,0.759,0.727c0.01-0.002,0.021,0,0.028-0.005c0.026-0.004,0.059-0.011,0.085-0.015
		c0.004,0,0.005-0.002,0.011-0.002c0.025-0.005,0.055-0.011,0.087-0.013c0.192-0.039,0.387-0.104,0.595-0.155
		c0.101-0.03,0.204-0.056,0.307-0.09c0.106-0.032,0.208-0.069,0.315-0.105c0.212-0.079,0.436-0.152,0.645-0.256
		c0.218-0.097,0.44-0.188,0.647-0.317c0.109-0.061,0.215-0.121,0.324-0.181c0.11-0.061,0.209-0.138,0.313-0.211
		c0.107-0.068,0.215-0.138,0.318-0.213c0.099-0.081,0.2-0.163,0.3-0.244c0.212-0.153,0.387-0.349,0.583-0.526
		c0.183-0.191,0.368-0.387,0.535-0.594c0.159-0.212,0.332-0.416,0.476-0.648c0.156-0.219,0.285-0.455,0.421-0.686
		c0.256-0.471,0.482-0.956,0.65-1.443c0.188-0.483,0.314-0.974,0.438-1.438c0.105-0.469,0.184-0.92,0.24-1.336
		c0.113-0.838,0.139-1.547,0.141-2.041c-0.002-0.494-0.029-0.778-0.029-0.778s0.063,0.277,0.121,0.773
		c0.055,0.496,0.113,1.208,0.098,2.071c-0.006,0.43-0.035,0.896-0.09,1.393c-0.064,0.494-0.146,1.016-0.279,1.547
		c-0.123,0.534-0.297,1.078-0.518,1.617c-0.109,0.273-0.227,0.544-0.369,0.802c-0.129,0.267-0.291,0.521-0.447,0.782
		c-0.162,0.249-0.339,0.498-0.523,0.736c-0.197,0.226-0.378,0.473-0.593,0.682c-0.11,0.104-0.211,0.215-0.316,0.317
		c-0.107,0.104-0.223,0.195-0.336,0.295c-0.11,0.092-0.224,0.195-0.337,0.285c-0.122,0.082-0.234,0.17-0.35,0.254
		c-0.231,0.174-0.475,0.317-0.715,0.46c-0.231,0.15-0.478,0.269-0.714,0.382c-0.117,0.056-0.234,0.118-0.348,0.172
		c-0.119,0.048-0.235,0.099-0.352,0.142c-0.23,0.086-0.451,0.191-0.669,0.258c-0.432,0.138-0.834,0.273-1.197,0.349
		c-0.075,0.017-0.144,0.03-0.217,0.052c-0.864,0.231-1.081,0.683-1.266,1.347c-0.06,0.217-0.121,0.444-0.177,0.67
		c-0.094,0.338-0.17,0.694-0.255,1.047l-0.127,0.524l-0.061,0.264l-0.016,0.069c-0.007,0.011,0-0.007-0.001,0.019l-0.006,0.03
		l-0.031,0.131c-0.291,1.41-0.578,2.817-0.87,4.214c-0.286,1.391-0.571,2.771-0.851,4.138c-0.148,0.677-0.282,1.361-0.411,2.037
		c-0.128,0.676-0.252,1.346-0.381,2.012c-0.099,0.527-0.196,1.043-0.296,1.555l0,0c-0.157,0.838,0.286,0.848,0.864,0.734
		c0.188-0.047,0.383-0.08,0.582-0.123c0.259-0.043,0.513-0.139,0.786-0.211c0.131-0.035,0.267-0.078,0.408-0.117
		c0.135-0.055,0.271-0.107,0.408-0.156c0.143-0.049,0.278-0.102,0.424-0.158c0.146-0.045,0.279-0.123,0.42-0.189
		c0.275-0.127,0.573-0.26,0.85-0.428c0.139-0.086,0.278-0.172,0.423-0.246c0.139-0.084,0.271-0.191,0.409-0.285
		c0.136-0.096,0.278-0.186,0.41-0.289c0.127-0.109,0.266-0.215,0.393-0.326c0.272-0.207,0.505-0.469,0.754-0.705
		c0.126-0.117,0.232-0.258,0.352-0.387c0.115-0.139,0.239-0.258,0.339-0.4c0.208-0.283,0.433-0.559,0.61-0.859
		c0.095-0.15,0.2-0.291,0.283-0.447c0.088-0.154,0.174-0.307,0.254-0.458c0.329-0.619,0.61-1.255,0.832-1.894
		c0.227-0.634,0.394-1.27,0.529-1.876c0.133-0.614,0.23-1.194,0.295-1.735c0.137-1.088,0.154-2.007,0.146-2.647
		c-0.015-0.645-0.051-1.01-0.051-1.01s0.073,0.363,0.14,1.004c0.064,0.642,0.134,1.565,0.096,2.679
		c-0.02,0.555-0.063,1.156-0.148,1.792c-0.081,0.632-0.196,1.305-0.376,1.981c-0.165,0.691-0.404,1.379-0.691,2.071
		c-0.072,0.174-0.152,0.344-0.227,0.516c-0.075,0.176-0.172,0.34-0.259,0.512c-0.164,0.34-0.379,0.656-0.581,0.988
		c-0.094,0.158-0.222,0.313-0.328,0.471c-0.119,0.15-0.225,0.318-0.354,0.459c-0.254,0.285-0.485,0.604-0.768,0.861
		c-0.138,0.133-0.271,0.262-0.404,0.4c-0.139,0.127-0.291,0.244-0.432,0.363c-0.143,0.119-0.283,0.246-0.432,0.357
		c-0.152,0.107-0.304,0.209-0.451,0.318c-0.295,0.225-0.611,0.396-0.909,0.576c-0.156,0.082-0.305,0.184-0.457,0.254
		c-0.156,0.076-0.31,0.15-0.458,0.227c-0.153,0.07-0.305,0.143-0.447,0.207c-0.156,0.064-0.305,0.121-0.446,0.178
		c-0.3,0.109-0.578,0.238-0.855,0.32c-0.394,0.109-0.758,0.23-1.102,0.32c0,0-0.001,0.002-0.006-0.002
		c-0.536,0.158-1.376,0.309-1.63,1.604c-0.113,0.631-0.229,1.26-0.329,1.877c-0.436,2.445-1.232,7.133-1.252,7.254
		c-0.198,1.25-0.433,3.604,1.569,4.688c0.4,0.162,0.831,0.334,1.311,0.49c2.443,0.795,4.305-0.4,5.784-0.414
		c1.48-0.008,4.007-0.988,3.577-2.191C49.181,70.689,48.595,68.203,52.333,64.014z"/>
</g>
<g>
	<path fill="#010101" d="M40.162,82.641c0.632-0.457,1.308-0.916,1.981-1.371c2.092-1.414,3.395-2.424,3.508-4.361
		c0.056-0.963-0.271-2.137-0.442-2.588c-0.086-0.223-0.149-0.477-0.224-0.725c-0.034-0.125-0.073-0.254-0.108-0.383
		c-0.032-0.129-0.06-0.268-0.088-0.404c-0.029-0.137-0.058-0.275-0.087-0.416c-0.034-0.139-0.039-0.285-0.062-0.436
		c-0.033-0.287-0.077-0.584-0.084-0.889c-0.002-0.154-0.007-0.305-0.018-0.465c0-0.15,0.013-0.309,0.019-0.463
		c0.008-0.154,0.008-0.314,0.027-0.473c0.017-0.16,0.036-0.314,0.056-0.473c0.032-0.318,0.117-0.627,0.176-0.941
		c0.033-0.158,0.086-0.314,0.131-0.469c0.05-0.15,0.084-0.305,0.145-0.455c0.111-0.297,0.218-0.602,0.359-0.885
		c0.07-0.146,0.13-0.289,0.203-0.43c0.075-0.133,0.15-0.275,0.226-0.412c0.309-0.537,0.646-1.049,1.017-1.51
		c0.357-0.463,0.745-0.871,1.12-1.254c0.381-0.379,0.755-0.709,1.113-1.006c0.719-0.586,1.363-1.008,1.821-1.293
		c0.457-0.277,0.73-0.412,0.73-0.412s-0.26,0.156-0.688,0.477c-0.432,0.32-1.032,0.799-1.679,1.432
		c-0.323,0.322-0.661,0.678-0.999,1.078c-0.326,0.398-0.667,0.834-0.969,1.307c-0.315,0.467-0.591,0.979-0.834,1.508
		c-0.059,0.133-0.117,0.27-0.175,0.398c-0.061,0.135-0.098,0.275-0.153,0.414c-0.104,0.273-0.175,0.563-0.255,0.842
		c-0.044,0.141-0.064,0.287-0.093,0.426c-0.025,0.145-0.064,0.283-0.079,0.434c-0.027,0.283-0.085,0.566-0.082,0.855
		c-0.002,0.141-0.009,0.279-0.018,0.424c0.001,0.139,0.011,0.279,0.016,0.418c0.011,0.141,0.012,0.275,0.027,0.412
		c0.017,0.137,0.035,0.266,0.051,0.404c0.024,0.27,0.091,0.527,0.146,0.781c0.025,0.129,0.046,0.254,0.086,0.375
		c0.036,0.123,0.072,0.244,0.108,0.359c0.036,0.117,0.072,0.232,0.104,0.35c0.047,0.111,0.089,0.219,0.133,0.334
		c0.086,0.211,0.156,0.426,0.255,0.623c0.349,0.713,0.887,1.6,2.114,0.59c0.092-0.074,0.187-0.15,0.279-0.229
		c1.594-1.336,3.332-2.682,5.101-4.1c0.445-0.348,0.895-0.709,1.342-1.061c0.314-0.25,0.629-0.498,0.949-0.748
		c0.002-0.004,0.004-0.004,0.012-0.008c0.313-0.246,0.947-0.73,0.848-1.703c-0.002-0.012-0.004-0.029-0.006-0.047
		c-0.002-0.025-0.004-0.047-0.01-0.072l0,0c-0.014-0.139-0.029-0.279-0.045-0.434c-0.059-0.387-0.059-0.838-0.08-1.32
		c-0.012-0.24,0.016-0.498,0.02-0.76c0.006-0.129,0.012-0.262,0.018-0.396c0.018-0.137,0.033-0.273,0.051-0.412
		c0.016-0.137,0.033-0.279,0.051-0.42c0.014-0.143,0.051-0.285,0.078-0.43c0.061-0.289,0.115-0.58,0.209-0.873
		c0.043-0.146,0.086-0.293,0.129-0.438c0.047-0.15,0.109-0.297,0.166-0.439c0.057-0.146,0.107-0.297,0.172-0.439
		c0.068-0.145,0.141-0.287,0.209-0.428c0.127-0.295,0.311-0.563,0.467-0.84c0.08-0.141,0.182-0.27,0.271-0.398
		c0.094-0.131,0.176-0.27,0.281-0.391c0.205-0.244,0.402-0.498,0.625-0.723c0.113-0.113,0.215-0.236,0.332-0.338
		c0.113-0.113,0.229-0.215,0.344-0.322c0.467-0.414,0.951-0.783,1.445-1.102c0.488-0.322,0.988-0.594,1.465-0.832
		c0.479-0.232,0.941-0.432,1.375-0.598c0.867-0.326,1.615-0.521,2.137-0.645c0.523-0.116,0.828-0.159,0.828-0.159
		s-0.299,0.069-0.809,0.234c-0.51,0.166-1.229,0.424-2.049,0.823c-0.414,0.197-0.846,0.432-1.289,0.699
		c-0.443,0.275-0.898,0.576-1.336,0.926c-0.447,0.346-0.871,0.742-1.273,1.162c-0.096,0.111-0.195,0.219-0.293,0.328
		c-0.1,0.109-0.182,0.229-0.275,0.344c-0.189,0.221-0.346,0.473-0.512,0.713c-0.086,0.117-0.148,0.252-0.225,0.377
		c-0.07,0.125-0.15,0.248-0.213,0.379c-0.115,0.266-0.258,0.516-0.35,0.789c-0.051,0.131-0.104,0.262-0.152,0.395
		c-0.043,0.133-0.078,0.27-0.117,0.404c-0.037,0.133-0.084,0.264-0.111,0.396c-0.025,0.139-0.053,0.27-0.078,0.4
		c-0.063,0.262-0.084,0.529-0.113,0.791c-0.012,0.125-0.037,0.248-0.037,0.377c-0.004,0.125-0.008,0.254-0.01,0.379
		c-0.006,0.121-0.008,0.244-0.016,0.361c0.008,0.119,0.014,0.24,0.021,0.355c0.014,0.232,0.01,0.461,0.043,0.676
		c0.039,0.301,0.068,0.588,0.113,0.85c0.182,0.891,0.66,0.525,1.1,0.189l0.002-0.004c0.885-0.68,1.773-1.361,2.666-2.049
		l0.189-0.146l0.18-0.133l0.363-0.268c0.244-0.18,0.482-0.361,0.736-0.537c0.504-0.355,1.01-0.713,1.518-1.043
		c2.029-1.359,4.105-2.617,6.174-3.809c2.07-1.188,4.129-2.307,6.135-3.367c3.639-1.912,7.1-3.616,10.15-5.079l0,0
		c0.154-0.073,0.344-0.163,0.162-0.455c-2.592-3.528-8.246-0.804-10.797-0.471c-2.592,0.337-10.578,1.85-14.293,3.65
		c-3.717,1.805-8.588,3.87-10.492,4.532c-1.905,0.658-5.89,2.406-8.39,6.363c-2.499,3.957-4.622,4.061-5.687,3.996
		c-1.063-0.072-1.265,2.18-0.936,3.369c0.328,1.186-0.199,2.951,0.997,4.723c1.2,1.783,2.436,2.479,1.465,4.029
		c-0.394,0.619-0.489,1.217-3.386,3.223c-3.017,2.09-7.603,4.83-6.74,6.107C30.663,89.531,37.292,84.711,40.162,82.641z"/>
	<path fill="#010101" d="M58.587,84.307c4.607-0.842,7.721-3.875,9.047-5.396c1.322-1.521,5.068-5.26,8.131-8.031
		c3.064-2.771,7.453-9.607,8.738-11.885c1.154-2.043,5.107-5.725,4.063-9.187c-0.061-0.163-0.199-0.339-0.564-0.142
		c-2.961,1.573-6.305,3.399-9.809,5.432c-1.955,1.127-3.959,2.324-5.963,3.576c-1.332,0.836-2.664,1.701-3.979,2.598
		c-0.572,0.422-0.26,0.666,0.127,0.873c0.008,0,0.014,0.004,0.018,0.008c0.021,0.008,0.043,0.021,0.064,0.029
		c0.002,0.006,0.004,0,0.006,0.006c0.02,0.008,0.043,0.021,0.068,0.033c0.145,0.078,0.305,0.133,0.467,0.207
		c0.084,0.033,0.164,0.068,0.248,0.104c0.088,0.029,0.174,0.055,0.264,0.086c0.178,0.059,0.363,0.129,0.553,0.162
		c0.191,0.047,0.389,0.1,0.59,0.125c0.102,0.014,0.205,0.035,0.307,0.047c0.102,0.014,0.207,0.018,0.313,0.025
		c0.105,0.006,0.211,0.018,0.318,0.021c0.107-0.004,0.213-0.004,0.322-0.008c0.217,0.008,0.434-0.029,0.652-0.043
		c0.217-0.029,0.438-0.068,0.656-0.115c0.215-0.057,0.432-0.107,0.645-0.182c0.215-0.068,0.42-0.154,0.629-0.24
		c0.408-0.176,0.807-0.379,1.17-0.605c0.367-0.229,0.705-0.477,1.021-0.727c0.311-0.25,0.592-0.508,0.842-0.752
		c0.508-0.49,0.887-0.943,1.139-1.268c0.256-0.324,0.383-0.525,0.383-0.525s-0.102,0.211-0.318,0.568
		c-0.217,0.355-0.543,0.855-0.996,1.412c-0.229,0.277-0.486,0.572-0.775,0.865c-0.295,0.297-0.617,0.594-0.977,0.873
		c-0.355,0.291-0.748,0.553-1.17,0.799c-0.213,0.119-0.428,0.236-0.656,0.334c-0.223,0.113-0.457,0.199-0.691,0.285
		c-0.236,0.086-0.479,0.154-0.723,0.219c-0.246,0.051-0.49,0.115-0.74,0.141c-0.125,0.014-0.246,0.031-0.369,0.049
		c-0.125,0.012-0.25,0.012-0.371,0.021c-0.123,0.004-0.246,0.012-0.367,0.012c-0.121-0.008-0.242-0.008-0.361-0.012
		c-0.244-0.006-0.473-0.035-0.705-0.064c-0.229-0.021-0.451-0.07-0.664-0.113c-0.107-0.025-0.215-0.047-0.318-0.068
		c-0.104-0.029-0.203-0.061-0.301-0.086c-0.197-0.064-0.395-0.107-0.572-0.172c-0.354-0.137-0.688-0.254-0.963-0.391
		c-0.059-0.025-0.111-0.051-0.17-0.078c-0.689-0.287-1.063-0.107-1.521,0.236c-0.154,0.117-0.309,0.232-0.461,0.354
		c-0.236,0.168-0.469,0.365-0.705,0.555l-0.354,0.279l-0.176,0.141l-0.045,0.035c-0.01,0.004,0.004-0.004-0.01,0.012l-0.02,0.018
		l-0.088,0.074c-0.914,0.777-1.826,1.551-2.73,2.314c-0.902,0.77-1.799,1.535-2.684,2.283c-0.445,0.369-0.881,0.752-1.313,1.129
		c-0.434,0.379-0.859,0.752-1.283,1.127c-0.336,0.295-0.664,0.58-0.994,0.867l0,0c-0.535,0.469-0.246,0.701,0.191,0.924
		c0.145,0.068,0.291,0.146,0.445,0.219c0.193,0.1,0.408,0.172,0.623,0.268c0.107,0.043,0.215,0.08,0.328,0.129
		c0.117,0.037,0.23,0.072,0.35,0.107c0.117,0.037,0.236,0.076,0.357,0.115c0.121,0.043,0.248,0.061,0.377,0.09
		c0.246,0.057,0.506,0.121,0.775,0.15c0.135,0.018,0.27,0.035,0.404,0.057c0.135,0.018,0.277,0.018,0.416,0.029
		c0.137,0.004,0.279,0.018,0.418,0.018c0.139-0.008,0.285-0.008,0.426-0.014c0.283,0.006,0.57-0.047,0.857-0.072
		c0.143-0.014,0.283-0.051,0.426-0.072c0.145-0.035,0.291-0.053,0.43-0.092c0.283-0.08,0.568-0.145,0.844-0.252
		c0.135-0.049,0.279-0.092,0.412-0.15c0.137-0.057,0.27-0.113,0.404-0.168c0.531-0.236,1.043-0.516,1.516-0.82
		c0.475-0.301,0.91-0.629,1.311-0.959c0.402-0.33,0.766-0.666,1.084-0.988c0.648-0.645,1.131-1.242,1.453-1.662
		c0.322-0.43,0.484-0.688,0.484-0.688s-0.137,0.27-0.42,0.73c-0.287,0.451-0.717,1.09-1.313,1.805
		c-0.299,0.352-0.639,0.725-1.016,1.104c-0.383,0.373-0.801,0.752-1.264,1.109c-0.465,0.365-0.973,0.699-1.52,1.004
		c-0.135,0.074-0.275,0.146-0.414,0.221c-0.139,0.072-0.285,0.133-0.428,0.201c-0.285,0.137-0.588,0.236-0.891,0.352
		c-0.146,0.057-0.305,0.096-0.459,0.139s-0.307,0.094-0.465,0.125c-0.316,0.055-0.629,0.145-0.945,0.166
		c-0.16,0.021-0.313,0.039-0.473,0.057c-0.156,0.018-0.314,0.018-0.471,0.021c-0.154,0.004-0.313,0.018-0.467,0.014
		c-0.156-0.01-0.307-0.018-0.459-0.027c-0.311,0-0.605-0.051-0.895-0.086c-0.145-0.025-0.293-0.033-0.432-0.068
		c-0.139-0.029-0.279-0.061-0.414-0.086c-0.139-0.029-0.275-0.061-0.4-0.09c-0.135-0.039-0.262-0.078-0.383-0.115
		c-0.252-0.078-0.504-0.139-0.729-0.229c-0.314-0.125-0.615-0.232-0.885-0.357c0,0-0.004,0.006-0.008,0
		c-0.432-0.172-1.057-0.502-1.891,0.215c-0.398,0.357-0.795,0.715-1.179,1.063c-1.539,1.383-4.466,4.057-4.539,4.125
		c-0.778,0.717-2.137,2.145-1.38,3.885c0.18,0.309,0.373,0.645,0.608,0.992c1.198,1.773,3.033,1.945,4.009,2.697
		c0.981,0.748,3.143,1.406,3.479,0.396C53.093,87.07,53.983,85.137,58.587,84.307z"/>
</g>
<path fill="#010101" d="M40.684,70.183"/>
</svg>
